<?xml version="1.0" encoding="utf-8"?>
<!-- Generator: Adobe Illustrator 27.4.1, SVG Export Plug-In . SVG Version: 6.00 Build 0)  -->
<svg version="1.1" id="Layer_1" xmlns="http://www.w3.org/2000/svg" xmlns:xlink="http://www.w3.org/1999/xlink" x="0px" y="0px"
	 viewBox="0 0 100 100" style="enable-background:new 0 0 100 100;" xml:space="preserve">
<style type="text/css">
	.st0{fill:#FFFFFF;}
	.st1{fill:#005EB8;}
	.st2{fill:#003B5C;}
</style>
<circle class="st0" cx="50" cy="50.4" r="50"/>
<g>
	<path class="st1" d="M86,40.1c-1.5,0-2.7,1.2-2.7,2.7c0,22.5-18.2,40.8-40.8,40.8c-1.5,0-2.7,1.2-2.7,2.7S41,89,42.5,89
		C68,89,88.7,68.3,88.7,42.8C88.7,41.3,87.5,40.1,86,40.1z"/>
	<path class="st2" d="M69.4,57.6c2.6-4.3,5.2-10,4.7-18C73.1,23,58,10.4,43.8,11.8C38.2,12.3,32.5,16.9,33,25
		c0.2,3.5,1.9,5.6,4.7,7.2c2.7,1.5,6.1,2.5,10,3.6c4.7,1.3,10.1,2.8,14.3,5.9C67.2,45.3,70.6,49.6,69.4,57.6z"/>
	<path class="st1" d="M16.1,28.6c-2.6,4.3-5.2,10-4.7,18c1,16.6,16.1,29.2,30.3,27.8c5.6-0.5,11.3-5.1,10.8-13.2
		c-0.2-3.5-1.9-5.6-4.7-7.2c-2.7-1.5-6.1-2.5-10-3.6c-4.7-1.3-10.1-2.8-14.3-5.9C18.3,40.9,14.9,36.6,16.1,28.6z"/>
</g>
</svg>
